inDegrees=yes
name=ik_S49_A09_T01
DataType=double
version=3
OpenSimVersion=4.3-2021-08-27-4bc7ad9
endheader
time	pelvis_tilt	pelvis_list	pelvis_rotation	pelvis_tx	pelvis_ty	pelvis_tz	hip_flexion_r	hip_adduction_r	hip_rotation_r	knee_angle_r	knee_angle_r_beta	ankle_angle_r	subtalar_angle_r	mtp_angle_r	hip_flexion_l	hip_adduction_l	hip_rotation_l	knee_angle_l	knee_angle_l_beta	ankle_angle_l	subtalar_angle_l	mtp_angle_l	lumbar_extension	lumbar_bending	lumbar_rotation	arm_flex_r	arm_add_r	arm_rot_r	elbow_flex_r	pro_sup_r	wrist_flex_r	wrist_dev_r	arm_flex_l	arm_add_l	arm_rot_l	elbow_flex_l	pro_sup_l	wrist_flex_l	wrist_dev_l
13.23999999999981	-10.67476845626364	-6.590944886318045	25.2702883773865	0	0.9399999999999999	0	43.13626392377936	-10.2335511694472	-10.15391636287966	54.87363932604018	0.9577256787912434	0	0	0	43.13626392377936	-10.2335511694472	-10.15391636287966	54.87363932604018	0.9577256787912434	0	0	0	-11.14772236574077	-3.04264721847225	2.293816931907935	83.22552959704824	0.1491509863324183	8.018345200197894	38.21920440785366	118.407520055196	0	0	78.06421055480556	-13.89972692155158	19.42898978893734	40.65325153986281	104.9871236234167	0	0
13.25999999999981	-10.62801687507902	-6.597189675054588	25.24239850397742	0	0.9399999999999999	0	43.13702364027047	-10.23321953402212	-10.15377607080514	54.87367389775302	0.9577262821814605	0	0	0	43.13702364027047	-10.23321953402212	-10.15377607080514	54.87367389775302	0.9577262821814605	0	0	0	-11.10092610705204	-3.085238023570607	2.35471254078515	83.93262194191344	0.03942500345916587	8.102746494391088	37.6735467273492	118.0403227912223	0	0	78.0394651266228	-13.69421783821553	19.6570596385994	40.5093576775262	104.9811969630434	0	0
13.27999999999981	-10.55563663203663	-6.609700663891027	25.27828898626041	0	0.9399999999999999	0	43.13780343081298	-10.23287952614486	-10.15363215862483	54.87370939419067	0.9577269017111701	0	0	0	43.13780343081298	-10.23287952614486	-10.15363215862483	54.87370939419067	0.9577269017111701	0	0	0	-11.03255173198074	-3.145756858473441	2.418972011165585	84.18959705591087	-0.07972178958499165	8.129222573848772	37.46333263114574	118.2740184600665	0	0	77.88815937157834	-13.484722394385	19.85259447270925	40.33564914174315	104.8063032475679	0	0
13.29999999999981	-10.51549175706971	-6.610909346952088	25.25279931350859	0	0.9399999999999999	0	43.1388704542933	-10.23241456254071	-10.15343527169492	54.87375793876262	0.9577277489737845	0	0	0	43.1388704542933	-10.23241456254071	-10.15343527169492	54.87375793876262	0.9577277489737845	0	0	0	-10.98974619801521	-3.181389520361336	2.482364845368306	84.54635560802249	-0.161377669512969	8.256085358735017	37.25277828846165	119.7577305661823	0	0	77.79474253068243	-13.31246958664165	19.92162881758086	40.27164748444615	104.8914121391413	0	0
13.3199999999998	-10.46488448826904	-6.626060737244231	25.24042180535153	0	0.9399999999999999	0	43.13974829328825	-10.23203228440521	-10.15327332775221	54.87379785871452	0.9577284457083824	0	0	0	43.13974829328825	-10.23203228440521	-10.15327332775221	54.87379785871452	0.9577284457083824	0	0	0	-10.94696334332758	-3.225160691963452	2.507416004436286	84.89847170088031	-0.2430325953903381	8.521708323571017	36.98128027355034	120.7130543209449	0	0	77.7711179284842	-13.19234681156022	19.96225388573158	40.17106295181379	105.1644177342033	0	0
13.3399999999998	-10.41586932154706	-6.637248961773833	25.23648820282854	0	0.9399999999999999	0	43.14029392224464	-10.23179526509867	-10.15317281838241	54.87382270887363	0.9577288794254786	0	0	0	43.14029392224464	-10.23179526509867	-10.15317281838241	54.87382270887363	0.9577288794254786	0	0	0	-10.90447828876746	-3.262147075592252	2.522860283492374	85.24501114510998	-0.3234287825685211	9.029813257188977	36.73308586390932	120.6117884294174	0	0	77.77765089015183	-12.86656466858035	19.81904021264501	39.85494040608992	105.5128768160406	0	0
13.3599999999998	-10.34515454678385	-6.655064369435889	25.24638854928252	0	0.9399999999999999	0	43.14087617278823	-10.23154279409482	-10.15306567935421	54.87384925784833	0.9577293427925001	0	0	0	43.14087617278823	-10.23154279409482	-10.15306567935421	54.87384925784833	0.9577293427925001	0	0	0	-10.85015804217162	-3.302709326609512	2.487783457312982	85.48952759431192	-0.301577797604348	9.610530533900958	36.48349427543758	120.1213948036183	0	0	77.73367861889221	-12.78939714025121	19.82976026243055	39.60627074568482	105.6902802894871	0	0
13.3799999999998	-10.31556838613951	-6.667084033788248	25.27814719299164	0	0.9399999999999999	0	43.14146835480413	-10.23128645168341	-10.152956824138	54.87387628961478	0.9577298145858275	0	0	0	43.14146835480413	-10.23128645168341	-10.152956824138	54.87387628961478	0.9577298145858275	0	0	0	-10.8291758261341	-3.324412548342835	2.475720853159642	85.76712490029428	-0.3555738244333582	9.933401954512782	36.26120776476584	119.8184115857119	0	0	77.70901268383847	-12.78868669958695	19.86723727877942	39.47264222023497	105.6797895010897	0	0
13.3999999999998	-10.27136540182425	-6.67130707835698	25.23881611025617	0	0.9399999999999999	0	43.14206088052426	-10.23102978478516	-10.15284784129343	54.87390330110978	0.957730286025351	0	0	0	43.14206088052426	-10.23102978478516	-10.15284784129343	54.87390330110978	0.957730286025351	0	0	0	-10.78549141908628	-3.359441692642275	2.520614248681111	86.29125013503209	-0.4909801099483176	9.852554648747022	35.80560830413937	120.0424020124996	0	0	77.6313231647141	-12.69443103265192	19.92951055497112	39.30010626123188	105.6583408359002	0	0
13.4199999999998	-10.21174239518385	-6.665126078845413	25.19213038886488	0	0.9399999999999999	0	43.14264333521051	-10.23077816684085	-10.15274089119333	54.8739299064138	0.9577307503755047	0	0	0	43.14264333521051	-10.23077816684085	-10.15274089119333	54.8739299064138	0.9577307503755047	0	0	0	-10.72591101064641	-3.385512904915993	2.540215679098705	86.38081285646327	-0.4976772403285354	9.950988954570821	35.6339504612395	120.267254220989	0	0	77.51082330238711	-12.66762212911904	20.13235591819043	39.10965175386117	105.5474225642411	0	0
13.4399999999998	-10.16683975917799	-6.66155795200616	25.15106259183061	0	0.9399999999999999	0	43.14346578277989	-10.23042270482536	-10.15258979925168	54.87396742397256	0.9577314051804323	0	0	0	43.14346578277989	-10.23042270482536	-10.15258979925168	54.87396742397256	0.9577314051804323	0	0	0	-10.67968146519777	-3.410068129774062	2.572630385121367	86.2942826678416	-0.4581015158260758	9.924496852580436	35.56714133076574	120.5975806985627	0	0	77.49367174235029	-12.61240675851987	20.38615107267282	38.91131997156211	105.3988549811456	0	0
13.4599999999998	-10.12395792896057	-6.653545735667962	25.09652751084979	0	0.9399999999999999	0	43.14409511432751	-10.23015242384122	-10.1524746506535	54.87399628242005	0.9577319088553581	0	0	0	43.14409511432751	-10.23015242384122	-10.1524746506535	54.87399628242005	0.9577319088553581	0	0	0	-10.63028114086906	-3.436629436757998	2.633544492678986	86.32840981755601	-0.5464902539032532	10.18657442621977	35.42128612921853	120.038802930334	0	0	77.47155249148692	-12.51596380683636	20.69312715279455	38.81692465997303	105.2194922788089	0	0
13.4799999999998	-10.08241464559381	-6.658904570893108	25.01637509372303	0	0.9399999999999999	0	43.14477165406694	-10.22986514823862	-10.15235177505423	54.87402761715709	0.9577324557496897	0	0	0	43.14477165406694	-10.22986514823862	-10.15235177505423	54.87402761715709	0.9577324557496897	0	0	0	-10.58442371826611	-3.48162215509134	2.722670480928532	86.30832937126739	-0.6590385201402231	10.43925067688363	35.42382768098609	119.1911055643814	0	0	77.46371334391085	-12.44483481781262	21.01965616760796	38.60435055224785	105.0408240272298	0	0
13.4999999999998	-10.03770214638549	-6.670729505671585	24.97220660714436	0	0.9399999999999999	0	43.14523369699395	-10.22967060826867	-10.1522683132305	54.87404916985975	0.9577328319153137	0	0	0	43.14523369699395	-10.22967060826867	-10.1522683132305	54.87404916985975	0.9577328319153137	0	0	0	-10.54252619652598	-3.524406103373979	2.771717747693997	86.20013154221938	-0.7061387172359923	10.53393937114526	35.50776323774702	118.7138368928962	0	0	77.46026546819061	-12.39412559640592	21.23412704215328	38.53203585544001	104.9650149893424	0	0
13.5199999999998	-10.02061702422846	-6.684706481930165	25.05896044340779	0	0.9399999999999999	0	43.14584516176773	-10.22941516584584	-10.15215842556487	54.87407789187098	0.9577333332089775	0	0	0	43.14584516176773	-10.22941516584584	-10.15215842556487	54.87407789187098	0.9577333332089775	0	0	0	-10.54581822626817	-3.517133219665574	2.65952226898088	86.09284097849182	-0.7181045116793338	10.50139718529067	35.96375137462363	117.3986820443121	0	0	77.59704646863479	-12.41849436633159	21.12825187591773	38.19494765421224	105.0510922829257	0	0
13.5399999999998	-10.0217429539406	-6.6721934457032	25.04872920979966	0	0.9399999999999999	0	43.14648218650302	-10.22914184243396	-10.15204188678658	54.87410705917211	0.9577338422744162	0	0	0	43.14648218650302	-10.22914184243396	-10.15204188678658	54.87410705917211	0.9577338422744162	0	0	0	-10.53992815102414	-3.509169181895631	2.680329552559341	85.98959790455395	-0.7777125491469464	10.25531729296376	36.32965125101593	116.7743958647493	0	0	77.64263748600254	-12.38174486779364	21.10077581369455	38.13596660314468	105.1407146255596	0	0
13.5599999999998	-10.02083447434565	-6.685874611289154	25.03666768648339	0	0.9399999999999999	0	43.14702972792618	-10.22890702638152	-10.15194173074354	54.87413211638238	0.9577342796052367	0	0	0	43.14702972792618	-10.22890702638152	-10.15194173074354	54.87413211638238	0.9577342796052367	0	0	0	-10.54520327312396	-3.521138285932939	2.679194394851133	85.91624407438825	-0.7701233370405636	9.912313636138901	36.70167916112239	116.3168250773242	0	0	77.72045551887406	-12.43377962282936	21.15811175945385	38.13563251102217	105.577036682632	0	0
13.5799999999998	-10.02332436053546	-6.681370969980367	25.1317914759378	0	0.9399999999999999	0	43.14788917866748	-10.22853726578041	-10.15178416820066	54.87417130586688	0.9577349635907734	0	0	0	43.14788917866748	-10.22853726578041	-10.15178416820066	54.87417130586688	0.9577349635907734	0	0	0	-10.55610848286813	-3.493798431394266	2.594031926757367	85.6356727333101	-0.5148924147391685	9.47295291959438	37.28042299789379	114.9148318582258	0	0	77.77718292302055	-12.4902210094473	20.9819833866985	38.15788578630492	105.9060347658266	0	0
